# xmcd
#
# Track frame offsets:
# 150
# 13133
# 30928
# 43698
# 58280
# 80344
# 94233
# 104441
# 122605
# 147369
# 167357
# 178621
# 193335
# 213092
# 227144
# 243970
# 263628
#
# Disc length: 3657 seconds
#
#
# Revision: 0
# Processed by: cddbd v1.5.1PL0 Copyright (c) Steve Scherf et al.
# Submitted via: FreeRIP 2.941 
#
DISCID=e30e4711
DTITLE=Ian Siegal - Hard As ...
DYEAR=1998
DGENRE=Blues
TTITLE0=Stop Breaking Down
TTITLE1=Ground Hog Blues
TTITLE2=Keep Your Powder Dry
TTITLE3=Take Me Back
TTITLE4=Baby Please Don't Go
TTITLE5=Stack 'O' Lee
TTITLE6=Gin Soaked Boy
TTITLE7=Hellhounds On My Trail
TTITLE8=Preaching Blues
TTITLE9=I Don't Want Your Gospel
TTITLE10=Leave My Wife Alone
TTITLE11=Drowned My Sorrows
TTITLE12=You Got To Move
TTITLE13=Sloppy Drunk
TTITLE14=She Moves Me
TTITLE15=Good Morning Little Schoolgirl
TTITLE16=Cornbread, Peas and Black Molasses
EXTD=Copyright 1998\nDisques Classiques\nDC307
EXTT0=
EXTT1=
EXTT2=
EXTT3=
EXTT4=
EXTT5=
EXTT6=
EXTT7=
EXTT8=
EXTT9=
EXTT10=
EXTT11=
EXTT12=
EXTT13=
EXTT14=
EXTT15=
EXTT16=
PLAYORDER=
